<?xml version="1.0" standalone="no"?>
<!DOCTYPE svg PUBLIC "-//W3C//DTD SVG 20010904//EN"
 "http://www.w3.org/TR/2001/REC-SVG-20010904/DTD/svg10.dtd">
<svg version="1.0" xmlns="http://www.w3.org/2000/svg"
 width="1280.000000pt" height="1264.000000pt" viewBox="0 0 1280.000000 1264.000000"
 preserveAspectRatio="xMidYMid meet">
<g transform="translate(0.000000,1264.000000) scale(0.100000,-0.100000)"
fill="#000000" stroke="none">
<path d="M6180 12637 c-3 -2 -79 -10 -170 -16 -241 -17 -418 -39 -443 -55 -12
-8 -89 -22 -172 -31 -134 -14 -277 -43 -600 -120 -55 -13 -167 -45 -250 -70
-82 -26 -206 -64 -275 -85 -524 -162 -1124 -463 -1599 -804 -141 -101 -412
-311 -511 -395 -196 -167 -567 -526 -720 -697 -368 -411 -696 -903 -871 -1305
-22 -52 -67 -150 -99 -219 -205 -436 -371 -1023 -434 -1535 -9 -71 -21 -160
-26 -197 -18 -120 -8 -406 16 -478 5 -13 7 -13 15 1 14 26 46 167 84 377 33
177 51 251 59 241 1 -2 -3 -78 -10 -169 -13 -176 -18 -507 -8 -559 18 -86 48
2 79 224 61 453 87 628 111 744 35 171 113 453 183 661 74 220 76 224 51 171
-11 -23 -39 -95 -62 -160 -43 -119 -54 -141 -70 -141 -15 0 2 68 59 230 140
396 303 746 511 1093 87 145 109 174 124 159 7 -7 -6 -38 -40 -94 -60 -100
-126 -231 -201 -398 -31 -69 -66 -139 -77 -155 -40 -57 -66 -117 -69 -166 -2
-26 -26 -105 -54 -176 -28 -70 -61 -159 -75 -198 -89 -260 -149 -449 -179
-575 -57 -232 -149 -793 -140 -845 3 -14 -5 -69 -18 -123 -20 -82 -24 -122
-24 -264 0 -112 4 -171 11 -178 9 -9 13 6 18 59 3 39 9 102 12 140 5 54 10 70
23 74 27 7 64 152 121 472 76 429 150 736 185 765 19 16 19 7 3 -70 -10 -49
-9 -59 7 -83 9 -15 21 -24 26 -21 5 3 23 33 40 66 17 33 33 57 37 53 21 -20
27 -73 20 -173 -10 -138 1 -252 23 -252 12 0 30 44 101 250 60 175 73 204 88
195 5 -3 62 105 128 239 259 528 419 775 896 1386 236 302 626 727 626 683 0
-5 -40 -62 -90 -127 -123 -162 -181 -266 -147 -266 21 0 83 48 323 251 604
508 976 760 1488 1010 460 223 900 362 1421 449 269 44 461 61 755 67 624 13
1177 -69 1755 -262 657 -219 1216 -530 1760 -981 162 -135 499 -470 631 -629
714 -859 1125 -1833 1229 -2910 86 -890 -59 -1762 -443 -2655 -675 -1572
-2158 -2781 -3832 -3124 -1163 -239 -2225 -160 -3275 243 -71 28 -131 49 -132
47 -2 -2 49 -26 114 -54 555 -236 1155 -377 1808 -423 214 -15 723 -6 930 16
882 93 1691 367 2410 813 462 288 950 705 1324 1135 51 59 98 107 103 107 11
0 8 -5 -44 -82 -21 -31 -38 -65 -38 -75 0 -47 -460 -522 -710 -734 -392 -332
-812 -602 -1195 -769 -628 -273 -1268 -424 -1950 -460 -110 -5 -285 -15 -390
-22 -226 -15 -394 -13 -605 8 -688 66 -1346 259 -1990 585 -505 255 -923 545
-1370 951 -85 78 -130 115 -100 84 30 -32 109 -108 175 -170 871 -806 1957
-1309 3180 -1471 66 -9 143 -23 170 -30 119 -33 546 -42 1045 -20 111 5 113 4
71 -10 -63 -21 -280 -43 -548 -55 -360 -17 -801 8 -1143 66 -286 48 -664 155
-980 279 -1209 472 -2249 1355 -2921 2480 -46 77 -136 246 -201 375 -65 129
-118 231 -118 227 0 -18 129 -297 202 -436 310 -596 734 -1151 1210 -1587 237
-218 264 -244 253 -244 -51 -1 -613 537 -815 779 -326 394 -544 730 -812 1256
-86 171 -158 302 -158 293 0 -9 15 -61 34 -115 19 -54 40 -118 46 -143 19 -73
216 -427 398 -715 513 -809 1216 -1476 2077 -1970 207 -119 581 -305 730 -364
412 -162 914 -285 1425 -351 85 -11 193 -29 240 -40 47 -12 95 -23 108 -26 32
-7 27 -24 -8 -24 -44 0 -306 28 -435 46 -542 76 -1110 238 -1610 459 -615 272
-1194 664 -1684 1140 -222 217 -371 386 -568 648 -96 128 -179 234 -185 236
-31 11 92 -161 266 -374 114 -139 110 -134 102 -142 -3 -3 -29 13 -57 36 -27
24 -53 41 -55 38 -3 -3 6 -25 20 -50 57 -97 12 -59 -129 108 -181 215 -419
551 -560 788 -31 53 -59 97 -62 97 -11 0 133 -239 249 -414 432 -648 967
-1189 1681 -1700 851 -609 1824 -975 2872 -1082 203 -20 617 -31 850 -22 549
22 1084 122 1630 303 306 101 503 182 790 325 555 275 1085 636 1528 1043 66
60 121 106 124 103 3 -2 0 -20 -6 -39 -8 -24 -47 -66 -130 -141 -574 -516
-1191 -905 -1871 -1178 -1375 -553 -2930 -603 -4328 -140 -911 303 -1714 790
-2403 1460 -955 928 -1603 2152 -1818 3437 -11 66 -34 230 -51 365 -18 135
-33 247 -35 249 -25 24 -7 -290 30 -535 240 -1584 1033 -2960 2285 -3963 760
-609 1709 -1051 2675 -1246 396 -80 700 -113 1120 -122 735 -15 1426 87 2115
312 552 181 1043 417 1515 730 620 410 1128 891 1588 1504 162 215 259 361
383 578 587 1023 868 2113 852 3306 -1 147 0 267 3 267 23 0 36 -602 20 -865
-56 -873 -271 -1684 -652 -2456 -54 -110 -96 -199 -94 -199 8 0 139 254 202
394 102 221 168 392 253 646 318 954 405 1979 254 2970 -80 525 -209 979 -422
1492 -32 79 -80 202 -106 273 -126 346 -412 848 -715 1255 -384 515 -875 975
-1415 1325 -225 145 -739 405 -1031 520 -93 37 -240 95 -325 130 -668 274
-1412 417 -2250 432 -146 3 -267 3 -270 0z m-1975 -492 c-16 -8 -95 -42 -175
-76 -442 -187 -752 -353 -1151 -615 -402 -264 -759 -566 -1095 -926 -86 -92
-163 -173 -172 -180 -49 -41 88 145 209 283 188 213 626 579 984 822 408 276
1020 594 1315 683 87 27 133 31 85 9z m-870 -595 c-16 -16 -60 -49 -99 -72
-206 -121 -513 -341 -721 -515 -163 -136 -254 -222 -574 -540 -150 -150 -278
-273 -283 -273 -29 0 208 265 432 484 316 307 637 561 1022 805 114 73 233
140 247 141 3 0 -8 -13 -24 -30z m-2350 -3660 c3 -5 1 -10 -4 -10 -6 0 -11 5
-11 10 0 6 2 10 4 10 3 0 8 -4 11 -10z"/>
<path d="M616 8395 c-9 -26 -7 -32 5 -12 6 10 9 21 6 23 -2 3 -7 -2 -11 -11z"/>
<path d="M1090 4025 c0 -5 5 -17 10 -25 5 -8 10 -10 10 -5 0 6 -5 17 -10 25
-5 8 -10 11 -10 5z"/>
<path d="M1060 3350 c6 -11 13 -20 16 -20 2 0 0 9 -6 20 -6 11 -13 20 -16 20
-2 0 0 -9 6 -20z"/>
</g>
</svg>
